<?xml version="1.0" encoding="utf-8"?>
<!-- Generator: Adobe Illustrator 24.0.1, SVG Export Plug-In . SVG Version: 6.00 Build 0)  -->
<svg version="1.1"
	 id="Layer_1" xmlns:cc="http://creativecommons.org/ns#" xmlns:dc="http://purl.org/dc/elements/1.1/" xmlns:rdf="http://www.w3.org/1999/02/22-rdf-syntax-ns#"
	 xmlns="http://www.w3.org/2000/svg" xmlns:xlink="http://www.w3.org/1999/xlink" x="0px" y="0px" viewBox="0 0 501 182"
	 style="enable-background:new 0 0 501 182;" xml:space="preserve">
<style type="text/css">
	.st0{fill:#020202;}
</style>
<title>Holothurian 1</title>
<desc  xmlns:ian_image_library="http://ian.umces.edu/imagelibrary/">
	<ian_image_library:title>Holothurian 1</ian_image_library:title>
	<ian_image_library:descr>Illustration of a holothurian or sea cucumber.</ian_image_library:descr>
	<ian_image_library:scene>
		<ian_image_library:contains>
			symbol,vector,illustration,echinoderm,fauna,Animalia,Echinodermata,Echinozoa,Holothuroidea,holothurian,sea cucumber,
			</ian_image_library:contains>
		<ian_image_library:when>2012-05-19</ian_image_library:when>
	</ian_image_library:scene>
</desc>
<path class="st0" d="M16.6,43.3C16.5,42,17,41.1,17.1,40c0.1-1.2-0.1-2.5,0.1-3.7c1.3-0.4,2.6,0.6,4.1,0.3c1.5-3,1.1-5.8,5.8-5.1
	c1.2,0.2,2.5,1.3,3.7,1.5c2.6,0.4,2.4-0.5,2.8-2.4c0.6-3.1-0.7-7.1,3.8-6.6c2.9,0.4,5.6,3.4,8.5,3.3c2.9-0.1,4.5-3.6,6.5-5.3
	c1-0.8,2.2-1.4,3.4-1.8c1.4-0.5,2.1-0.9,3.4-1.8c2.7-1.6,4.9-3.2,7.9-3.9c2.5-0.6,5.8-2,8.4-2c0.2-3.8,1.3-7.3,3-10.7
	c1.4-0.3,2.5,1.7,3.7,2.3C83.3,5,84.4,5,85.3,6.6c1.6,2.9,1.6,5.8,2.4,8.9c0.5,1.8,0.6,3,2.8,3.3c0.5,0.1,3-1,5.8-0.2
	c2.6,0.8,5.4,3.6,6.5,3.4c1.8-0.2,6.1-3.3,6.1-3.3c2.7-1.1,6.2-5.9,8.5-1.4c1.4,2.8,2.2,5.3,4.4,7.9c2,2.4,5.8,5.5,8.9,4.3
	c2.6-1,5.8-3.4,9-2.5c2.6,0.7,4.3,4.3,5.7,6.2c1.8,2.5,2.6,5,5.3,6.6c2.4,1.4,5.2,1.7,7.9,2.3c1.8,0.4,3.7,0,5.4-0.5
	c1.8-0.5,3.5-0.3,5.3,0.1c1.8,0.5,2.9,0.3,4.7,0c2.4-0.3,3.3,0.2,4.8,1.8c1.1,1.1,1.9,2.1,2.8,3.3c1.2,1.5,1.7,1.9,3.3,0.2
	c1.5-1.5,4.1-6.3,6.6-5c1.2,0.6,3.9,7,4.6,8.6c0.5,1.2,0.7,2.8,2,3.7c2.5,1.7,2.8-1,3.2-2.7c0.4-1.5,0.5-4.2,1.8-5.2
	c1.9-1.5,3.4-0.2,4.4,1.3c1.7,2.6,2.6,5.5,5.2,7.5c3.9,3.1,4.2-1.9,5.9-4.2c1.3-1.9,2.7-3.1,5.2-3.3c0.5-2.5,3.1-3.8,5.4-2.9
	c2.3,1,3,3.3,4.1,5.3c1.3,2.5,2.1,3.5,4.7,4.2c1.5,0.4,14.5,0.6,17.8-2.4c3.3-3,5.4-5.8,8.1-5.1c2.3,0.6,4.5,4.2,6.2,6
	c3.4,3.5,4-1.7,7.9-0.8c2.7,0.6,4.4,4.3,6.7,6c3,2.2,6.8,2.6,9.9,0.7c2.7-1.7,5.6-5.2,8.8-5.8c4-0.8,4.9,2.8,6.7,5.5
	c1.7,2.6,4.2,5.4,7.4,5.8c1.8,0.2,3.2-0.7,4.7-1.3c1.7-0.7,3.3-0.6,5.2-0.6c4.6,0,2.8-4.1,6.2-5.6c2.7-1.1,4.9,3.2,6.4,4.7
	c0.9,1,1.9,2.3,3.4,1.8c1.8-0.6,1.3-2.5,1.8-3.8c4.1-9.6,7.2,6.6,11.8,4.3c2.3-1.1,3.3-5.9,4.8-7.9c2-2.6,4.9-2.5,7.9-1.1
	c0,0-0.1,0.4,0,0c7.3-4.3,8.6,8.1,11.4,12.1c0.7,1.1,1.9,2.8,3.2,3.3c1.6,0.6,4.4,0.1,6.1,0.1c3.6,0,7.9,0.5,11.2-0.6
	c3.3-1.1,3.9-4.5,5.3-7.4c1-2,2.1-8.3,6-6.5c0.8,0.4,2.4,2,3,2.6c1.5,1.4,1.8,2.4,1.7,4.4c0,3.3-1.9,7.3,2.3,8.6
	c3.7,1.1,8,1.7,12.2,1.2c1.6-0.2,4.3-0.1,5.8-1.2c1.8-1.2,2.8-3,4.3-4.2c4.6-3.7,4.8,3,8.3,3.7c2,0.3,3.5-1.8,5.1-2.9
	c2-1.4,8.6-3.5,10.1-1.9c1.1,1.1,1.1,3.1,2.3,4.3c2.4,2.2,5.9,2.3,8.4,4.3l7.9,9.8l-2.7,17.5c0,0-62.4,38.6-62.8,39.8
	c-0.4,1.2-178.6,1.6-178.6,1.6s-118.2-40.2-119.3-38.6c-1.2,1.6-76.8-48-77.2-46.8C43,59.2,16.6,43.3,16.6,43.3z"/>
<path class="st0" d="M465.7,75.6c1-0.6,2.1-0.6,3.1-1.1c0.9-0.4,1.9-1.1,2.7-1.6c1.4-0.8,2.9-1.6,4.4-2.3c2.8-1.3,3-2.5,5.5-4.6
	c1.1-0.9,5.7-3,7-1.4c0.9,1.1,0.9,4.7,0.3,5.7c-1,1.8-8.3,6.4-2.4,7.2c1.9,0.7-0.1,4.1,0.9,6.1c2.7,0.4,4.1-1.5,6.6-1.5
	c1.4,0,3.9,0.7,1.9,2c-0.9,0.6-2.3,0-2.3,1.6c0,2.3,5.3,0.6,6.4,2.2c1.7,2.6-4,2-5.1,2.1c0.5,1,1.8,1.8,2.3,2.7
	c1.1,1.9-0.3,2.6-2,1.9c-1-0.5-1.9-1.8-3-2.1c-1.5-0.3-1.5,1-1.7,2.4c-0.4,4.3,7.8,9.3,5.5,13.3c-1.4,2.3-4.3,2.7-6.6,3.1
	c-2.5,0.5-6.2,0.4-6.6,3.5c-0.5,3.3,2.5,4,3.6,6.6c1.5,3.4-0.8,5.4-5.2,5.1c-4.3-0.3-9.9-2.9-14.8-0.3c-2.1,1.1-15.1,11.5-16.6,13.6
	c-3.2,4.4-4.3,10.1-7.6,14.2c-1.7,2.1-3.9,1.9-6,0.8c-0.8-0.4-1.4-1.4-2.1-1.8c-0.9-0.4-2.9-0.2-3.8-0.1c-3.1,0.2-6.2,1.1-9.4,1.6
	c-2.8,0.4-5.4,2.6-6.7,5c-1.5,2.7-2.3,5.9-2.9,8.7c-0.4,2-0.8,7.2-3.2,8.1c-2.3,0.9-5.5-1.7-7.1-3c-2.3-1.9-2.7-4.4-3.9-7
	c-1.1-2.4-2.6-5-4.9-6.4c-1.4-0.8-2.8-0.8-4.4-0.3c-0.7,0.2-1.4,0.4-1.9,0.8c-0.6,0.4-4.6,5-6.3,5.8c-1.7,0.8-4.2-0.9-5.8-1.6
	c-2.8-1.2-5.2-2.2-8.3-0.8c-2.5,1.2-3.9,2.7-6.1,4.5c-4,3.3-8.9,6.7-14.1,7.3c-1.7,0.2-3.4,0.2-5.1,0.4c-1.5,0.2-3.3,0.1-4.7-0.3
	c-2.4-0.7-4.1-3.4-6.1-4.9c-2.1-1.5-4.4-2.7-6.7-3.7c-1.6-0.7-2.2-0.8-5.1-1.7c-2.8-0.9-16.1-2.5-21.7-2.2
	c-2.9,0.2-9.4,0.9-11.4,2.3c-3.9,2.7-3.6,7.2-4.7,11.2c-0.3,1.3-0.2,3.3-2,3.5c-1,0.1-2.6-1.1-3.5-1.7c-2.4-1.7-3.5-3.7-4.6-6.2
	c-0.9-1.9-2-6.1-4.3-7c-2.7-0.9-6.3,0.8-7.5,3.1c-1.2,2.1-0.5,5.9-2.5,7.6c-2.3,2-5.1-1.2-6.6-2.9c-1.6-1.8-3.1-3.8-5.1-5.5
	c-1.1-0.9-2.3-1.4-3.6-2c-1-0.4-14.5-3.4-18.7-3.4c-4.2,0-6.4,0.4-9.7,0.4c-3.1,0-5.7,0.4-8.2,1.9c-4.8,3-4.6,9.3-9,12.8
	c-2.1,1.7-5.2,2-6.7-0.6c-1.4-2.4-0.7-6.2-0.7-9.1c0-3.4,0.3-6.2-1.9-9c-1.4-1.9-3.9-4-5.9-5.1c0,0-10.5-6.1-18.7-7.8
	c-8.2-1.7-18.7-4.7-18.7-4.7c-4,0-6.9,1.2-9.2,4.4c-0.9,1.1-2.4,3.1-3.7,3.7c-1.9,0.9-3.8-0.2-4.3-1.8c-1.1-3.6-0.1-8.5-0.6-12.3
	c-0.2-1.8-0.8-3.8-2.5-4.9c-1.4-0.9-3.7-0.5-5.3-1c-6-1.8-4.6-8.5-7.6-12.7c-1.6-2.2-3.6-4-6.5-3.6c-2.5,0.3-6,0.4-8.1,2
	c-1.9,1.4-3.7,3.4-5.2,4.9c-1.6,1.6-4.4,4-6.3,1.4c-1.3-1.8-0.1-7.2,0.6-9c1-2.6,2.3-5.5,2.6-8.3c0.8-6-0.6-11.6-6.7-13.2
	c-3.1-0.8-6.1-0.2-9.3-0.1c-2.8,0.1-5.3,1-7.8,2.3c-2.6,1.3-4.7,3.8-7.3,4.8c-3.9,1.4-2.1-3.8-1.3-5.7c0.9-2.4,4.6-9.6,4.4-10.8
	c-0.4-1.9-0.5-1.9-2.7-1.9s-7.3,3.3-7.8,3.6c-0.4,0.3-2.8,2.8-3.2,3.3c-0.4,0.4-0.6,0.9-0.8,1.3c-0.7,1.1-1.6,1.8-2.8,2.4
	c-0.5,0.3-2.7,1.4-3.3,1c-0.6-0.5,0.4-2.9-1.2-2c-0.5,0.3-2.1,2-2.6,1.9c-1-0.1-3.2-4.1-3.9-4.1c-1.1,0-1.9,1-3,0.9
	c-1.2-0.1-1.4-1.4-1.4-2.5c0-0.8,0.1-2.4-0.9-2.7c-0.6-0.2-1.2,0.2-1.7,0.2c-0.6,0-0.7-0.5-0.9-1c-0.3-1.1,0.1-2.3-0.5-3.3
	c-1-1.7-3.5,2.7-4,3.5c-0.8,1.3-2.7,4.5-4.7,3c-1.7-1.3-1.2-3.8-2-5.5c-1,0.2-2,0.9-3,1c-1.3,0.2-1.3-1.6-1.3-2.6
	c0-1.2,1.3-5.6,0.8-6.6c-0.4-0.2-2.6,1.1-2.9,1.4c-0.9,0.8-1.4,1.3-2.7,1.2c-0.4-1,0.7-7.8,1.2-8.6c0.4-0.7,1.1-1.5,0.2-2.2
	c-0.8-0.6-2,0-2.1-1.3c-0.1-0.9,1.5-4.2,2-4.9c0.4-0.5,1.3-1.4,2-1.3c0,0,1.5,0.2,3.9-1.7c2.3-1.9-1.6-3.5-1.6-3.5
	c-1.3-1.5,0.4-3.7,0.8-5c1-0.2,3.7,0.5,4.5-0.1c1-0.8,0.7-2.7,1.3-3.7c1.7-3,4.9,1,7.7,0.3c0.5-0.1,6.8-1.6,8.6-1.1
	c3.2,0.9,6.2,1.6,9.3,2.7c4.5,1.7,26.7,13.4,29.3,15.4c2.8,2.1,16.5,10,20.2,12.2c6,3.6,46.8,20.1,48,21.4c0,0,23.7,14.7,25.6,15.3
	c7.1,2.1,14.3,4.2,21.4,6.2c4.4,1.2,8.6,3.1,13,4.2c5,1.3,10.1,2.1,15.2,3c10.1,1.7,20.2,2.6,30.4,3.3c11,0.8,51,8.3,56.6,7.7
	c15.4-1.6,17.4-0.5,32.8,0.8c6.4,0.5,20.3,0.1,26.5,1.6c2.2,0.5,13.8-0.6,16,0c2.2,0.6,36.2-5.4,36.8-5.5c1.5-0.5,15.2-3.1,17.5-3.4
	c2-0.2,3.9-1,5.8-1.7c4.1-1.5,6.6-5.1,9.7-8.2c2.2-2.2,1.8-4.5,3.1-7c0.7-1.3,1.6-2.6,2.9-2.9c1.4-0.4,2.7-0.3,4.2-0.5
	c2.7-0.3,5.3-1,7.8-2.3c2.8-1.5,2.6-4.7,5-6.3c2.3-1.6,5.3-0.8,7.8-2.3c2.2-1.4,3.5-3.2,4.1-5.7c0.6-2.9,0.3-5.5-1.7-7.8
	C475.4,79.9,465.7,75.6,465.7,75.6z"/>
</svg>
