<?xml version="1.0" encoding="UTF-8" standalone="no"?>
<svg xmlns:rdf="http://www.w3.org/1999/02/22-rdf-syntax-ns#" xmlns="http://www.w3.org/2000/svg" height="182px" width="501px" xmlns:cc="http://creativecommons.org/ns#" xmlns:xlink="http://www.w3.org/1999/xlink" xmlns:dc="http://purl.org/dc/elements/1.1/">
<title>Holothurian 1</title>
<desc xmlns:ian_image_library="http://ian.umces.edu/imagelibrary/">
      <ian_image_library:title>Holothurian 1</ian_image_library:title>
      <ian_image_library:descr>Illustration of a holothurian or sea cucumber.</ian_image_library:descr>
      <ian_image_library:scene>
		<ian_image_library:contains>symbol,vector,illustration,echinoderm,fauna,Animalia,Echinodermata,Echinozoa,Holothuroidea,holothurian,sea cucumber,</ian_image_library:contains>
        <ian_image_library:when>2012-05-19</ian_image_library:when>
	  </ian_image_library:scene>
   </desc>
    <metadata
		id="metadata-iil-5c853b178951b14451b88e9d50227bdb">
      <rdf:RDF>
      <cc:Work
         rdf:about="">
        <dc:format>image/svg+xml</dc:format>
        <dc:type
           rdf:resource="http://purl.org/dc/dcmitype/StillImage" />
        <cc:license
           rdf:resource="http://creativecommons.org/licenses/by-sa/3.0/" />
        <dc:title>Holothurian 1</dc:title>
		<dc:date>2012-05-19</dc:date>
        <dc:creator>
			<cc:Agent>
				<dc:title>Tracey Saxby</dc:title>
			</cc:Agent>
		</dc:creator>
		<dc:rights>
          <cc:Agent>
            <dc:title>Tracey Saxby, Integration and Application Network</dc:title>
          </cc:Agent>
        </dc:rights>
        <dc:publisher>
          <cc:Agent>
            <dc:title>Integration and Application Network</dc:title>
          </cc:Agent>
        </dc:publisher>
		<dc:identifier>http://ian.umces.edu/imagelibrary/displayimage-7655.html</dc:identifier>
        <dc:source>http://ian.umces.edu/imagelibrary/displayimage-7655.html</dc:source>
        <dc:language>en-US</dc:language>
        <dc:subject>
          <rdf:Bag>
            <rdf:li>symbol,vector,illustration,echinoderm,fauna,Animalia,Echinodermata,Echinozoa,Holothuroidea,holothurian,sea cucumber,</rdf:li>
          </rdf:Bag>
        </dc:subject>
        <dc:coverage></dc:coverage>
        <dc:description>Illustration of a holothurian or sea cucumber.</dc:description>
        <dc:contributor>
          <cc:Agent>
            <dc:title></dc:title>
          </cc:Agent>
        </dc:contributor>
      </cc:Work>
      <cc:License
         rdf:about="http://creativecommons.org/licenses/by-sa/3.0/">
        <cc:permits
           rdf:resource="http://creativecommons.org/ns#Reproduction" />
        <cc:permits
           rdf:resource="http://creativecommons.org/ns#Distribution" />
        <cc:requires
           rdf:resource="http://creativecommons.org/ns#Notice" />
        <cc:requires
           rdf:resource="http://creativecommons.org/ns#Attribution" />
        <cc:permits
           rdf:resource="http://creativecommons.org/ns#DerivativeWorks" />
        <cc:requires
           rdf:resource="http://creativecommons.org/ns#ShareAlike" />
      </cc:License>
    </rdf:RDF>
  </metadata>
	
<defs>
</defs>
<path fill="#29363F" d="M57.541,22.566c0.144-1.274-1.349-3.239-1.776-4.335c-0.472-1.205-1.216-3.309-1.055-4.613
	c0.533-4.258,5.352-1.269,7.406-0.527c2.365-1.913,3.725-5.746,7.549-4.527c1.41,0.452,2.731,1.965,3.292,3.292
	c0.533,1.266,1.771,3.623,1.516,5.068L57.541,22.566z"/>
<path fill="#252E33" d="M413.1,61.13c0.793-0.738,1.109-2.273,1.998-3.172c0.91-0.919,1.98-1.563,3.176-2.001
	c2.775-1.019,6.15-1.92,6.594,1.882c0.383,3.267-0.521,6.72,0.344,9.876c0.523,1.896,2.576,6.226,4.354,7.056l-14.111,0.472
	L413.1,61.13z"/>
<linearGradient id="ian_symbols_b5e5d3a2da417b6431733008c0962cf4" gradientUnits="userSpaceOnUse" x1="16.6074" y1="72.6772" x2="483.9888" y2="72.6772">
	<stop  offset="0" style="stop-color:#213E46"/>
	<stop  offset="0.3212" style="stop-color:#24404B"/>
	<stop  offset="1" style="stop-color:#1E252B"/>
</linearGradient>
<path fill="url(#ian_symbols_b5e5d3a2da417b6431733008c0962cf4)" d="M16.628,43.261c-0.122-1.221,0.333-2.14,0.478-3.292c0.15-1.213-0.094-2.484,0.061-3.689
	c1.26-0.441,2.648,0.636,4.08,0.313c1.516-3.047,1.088-5.834,5.751-5.115c1.238,0.191,2.471,1.26,3.708,1.46
	c2.576,0.414,2.432-0.469,2.826-2.401c0.627-3.104-0.677-7.095,3.786-6.559c2.903,0.35,5.568,3.384,8.466,3.3
	c2.854-0.081,4.452-3.589,6.456-5.313c0.983-0.841,2.232-1.374,3.409-1.763c1.443-0.48,2.065-0.946,3.397-1.768
	c2.67-1.637,4.913-3.203,7.91-3.853c2.542-0.552,5.801-2.04,8.388-1.962c0.161-3.777,1.349-7.35,2.97-10.675
	c1.443-0.325,2.537,1.654,3.675,2.29c1.299,0.73,2.448,0.785,3.297,2.342c1.577,2.881,1.554,5.846,2.354,8.935
	c0.466,1.801,0.555,2.953,2.82,3.314c0.466,0.075,2.97-1.016,5.751-0.158c2.576,0.796,5.407,3.556,6.484,3.425
	c1.832-0.225,6.112-3.29,6.112-3.29c2.67-1.055,6.207-5.87,8.466-1.41c1.421,2.817,2.165,5.288,4.352,7.875
	c2.004,2.381,5.795,5.493,8.898,4.319c2.593-0.983,5.824-3.389,8.965-2.534c2.582,0.699,4.264,4.28,5.657,6.237
	c1.771,2.479,2.582,5.032,5.269,6.631c2.42,1.443,5.234,1.657,7.882,2.292c1.849,0.447,3.675,0,5.429-0.48
	c1.821-0.497,3.475-0.333,5.285,0.114c1.815,0.453,2.87,0.261,4.702,0.003c2.354-0.333,3.259,0.194,4.813,1.762
	c1.077,1.085,1.932,2.112,2.842,3.306c1.166,1.526,1.676,1.859,3.287,0.233c1.487-1.501,4.085-6.295,6.583-4.96
	c1.166,0.622,3.897,7.02,4.592,8.58c0.527,1.188,0.693,2.814,1.959,3.686c2.515,1.726,2.775-0.985,3.214-2.731
	c0.372-1.477,0.539-4.183,1.849-5.196c1.865-1.455,3.409-0.164,4.369,1.315c1.716,2.648,2.57,5.454,5.174,7.527
	c3.941,3.137,4.225-1.884,5.879-4.232c1.344-1.896,2.664-3.104,5.207-3.259c0.521-2.476,3.137-3.825,5.374-2.856
	c2.325,1.007,3.02,3.264,4.118,5.315c1.321,2.487,2.076,3.514,4.73,4.18c1.51,0.38,14.478,0.605,17.758-2.409
	c3.281-3.014,5.38-5.782,8.089-5.102c2.281,0.572,4.512,4.25,6.233,6.006c3.447,3.522,3.992-1.74,7.879-0.833
	c2.73,0.638,4.396,4.316,6.678,6.021c2.98,2.218,6.789,2.64,9.896,0.702c2.682-1.666,5.631-5.182,8.799-5.782
	c4.043-0.763,4.914,2.801,6.713,5.538c1.682,2.553,4.201,5.382,7.383,5.784c1.754,0.222,3.186-0.727,4.729-1.318
	c1.732-0.658,3.338-0.597,5.174-0.585c4.574,0.025,2.754-4.1,6.207-5.551c2.709-1.138,4.863,3.15,6.373,4.727
	c0.932,0.972,1.877,2.295,3.43,1.788c1.811-0.591,1.301-2.548,1.838-3.811c4.07-9.637,7.223,6.578,11.781,4.277
	c2.264-1.141,3.291-5.89,4.834-7.886c1.988-2.559,4.896-2.49,7.867-1.071c0,0-0.084,0.375,0.033,0
	c7.254-4.263,8.637,8.135,11.357,12.124c0.732,1.077,1.871,2.82,3.18,3.303c1.645,0.61,4.359,0.094,6.119,0.094
	c3.629,0,7.893,0.533,11.186-0.575c3.33-1.121,3.902-4.549,5.268-7.433c0.961-2.032,2.127-8.349,6.029-6.478
	c0.799,0.383,2.42,2.021,3.047,2.598c1.461,1.352,1.76,2.398,1.748,4.363c-0.01,3.323-1.859,7.3,2.254,8.568
	c3.691,1.138,8.039,1.674,12.225,1.205c1.609-0.183,4.291-0.142,5.773-1.18c1.771-1.235,2.754-2.973,4.33-4.241
	c4.623-3.725,4.752,3.042,8.332,3.653c2.004,0.344,3.52-1.843,5.068-2.948c2.004-1.432,8.615-3.483,10.125-1.893
	c1.078,1.135,1.088,3.117,2.326,4.255c2.354,2.162,5.885,2.343,8.361,4.338l7.865,9.798l-2.73,17.545
	c0,0-62.385,38.603-62.773,39.774c-0.389,1.168-178.584,1.557-178.584,1.557s-118.153-40.161-119.319-38.601
	c-1.171,1.557-76.818-47.963-77.207-46.792C42.985,59.221,16.628,43.261,16.628,43.261z"/>
<path fill="#1A2425" d="M339.91,122.389c-2.92,2.34-3.197,3.55-3.508,6.142c-0.398,3.412,2.631,3.783,5.264,3.803
	c2.336,0.017,5.789-0.969,6.961-3.283c0.504-1,0.455-2.815,0.133-3.809c-0.145-0.444-2.031-1.499-2.121-2.268
	C346.639,122.974,342.836,120.049,339.91,122.389z"/>
<path fill="#1A2332" d="M267.389,117.126c-1.121,0.936-2.32,2.129-2.653,3.786c-0.327,1.648-0.05,3.63,0.966,4.921
	c1.027,1.299,2.464,2.276,3.964,2.762c1.398,0.456,3.363,1.293,5.045,0.827c1.262-0.344,2.648-1.76,3.492-2.645
	c1.355-1.416,1.898-2.917,1.988-4.971c0.055-1.421-0.412-2.981-1.473-4.022c-1.414-1.388-2.646-1.243-4.607-1.243L267.389,117.126z"
	/>
<linearGradient id="ian_symbols_22124a206bc792341d7de3a1401c8409" gradientUnits="userSpaceOnUse" x1="0" y1="110.5923" x2="499.9995" y2="110.5923">
	<stop  offset="0" style="stop-color:#26404F"/>
	<stop  offset="0.3091" style="stop-color:#283E46"/>
	<stop  offset="0.5455" style="stop-color:#24343B"/>
	<stop  offset="0.8424" style="stop-color:#1D2527"/>
	<stop  offset="1" style="stop-color:#1E252B"/>
</linearGradient>
<path fill="url(#ian_symbols_22124a206bc792341d7de3a1401c8409)" d="M465.664,75.6c0.988-0.616,2.086-0.627,3.137-1.066c0.859-0.358,1.887-1.091,2.73-1.568
	c1.422-0.799,2.904-1.626,4.363-2.34c2.775-1.349,3.043-2.518,5.463-4.591c1.055-0.896,5.674-2.962,7.033-1.382
	c0.928,1.074,0.859,4.688,0.289,5.748c-0.982,1.807-8.262,6.373-2.42,7.214c1.947,0.694-0.078,4.108,0.914,6.104
	c2.666,0.369,4.086-1.538,6.563-1.49c1.41,0.028,3.875,0.661,1.938,1.957c-0.904,0.605-2.338,0.022-2.342,1.552
	c-0.006,2.282,5.301,0.569,6.367,2.223c1.658,2.562-4.025,1.968-5.141,2.143c0.533,0.988,1.775,1.773,2.309,2.731
	c1.055,1.885-0.299,2.648-1.971,1.882c-1.016-0.469-1.871-1.846-3.014-2.054c-1.5-0.275-1.533,0.977-1.654,2.434
	c-0.361,4.291,7.816,9.323,5.461,13.256c-1.387,2.307-4.34,2.698-6.627,3.12c-2.521,0.463-6.174,0.436-6.629,3.511
	c-0.504,3.342,2.492,4.027,3.609,6.608c1.477,3.417-0.834,5.424-5.174,5.088c-4.342-0.339-9.893-2.934-14.828-0.294
	c-2.064,1.107-15.127,11.53-16.648,13.637c-3.164,4.396-4.285,10.101-7.611,14.242c-1.721,2.144-3.924,1.929-6.033,0.772
	c-0.766-0.42-1.389-1.408-2.137-1.766c-0.861-0.408-2.865-0.152-3.826-0.078c-3.08,0.244-6.199,1.11-9.363,1.552
	c-2.799,0.392-5.369,2.573-6.723,4.993c-1.512,2.676-2.311,5.926-2.932,8.749c-0.445,2.046-0.799,7.202-3.188,8.122
	c-2.303,0.887-5.506-1.664-7.139-3.043c-2.297-1.939-2.719-4.446-3.896-7.025c-1.094-2.412-2.576-5.04-4.873-6.422
	c-1.367-0.824-2.805-0.811-4.387-0.295c-0.654,0.214-1.387,0.4-1.947,0.771c-0.645,0.428-4.631,4.975-6.313,5.779
	c-1.727,0.824-4.246-0.93-5.773-1.571c-2.787-1.165-5.174-2.237-8.277-0.788c-2.537,1.183-3.914,2.692-6.057,4.494
	c-3.98,3.342-8.92,6.705-14.111,7.322c-1.688,0.199-3.447,0.186-5.09,0.389c-1.482,0.183-3.303,0.071-4.68-0.325
	c-2.41-0.694-4.053-3.384-6.141-4.86c-2.119-1.499-4.352-2.723-6.717-3.705c-1.609-0.67-2.242-0.813-5.078-1.668
	c-2.838-0.853-16.055-2.507-21.723-2.152c-2.932,0.184-9.449,0.928-11.414,2.26c-3.908,2.654-3.629,7.187-4.686,11.211
	c-0.338,1.288-0.193,3.328-1.965,3.539c-1.021,0.122-2.643-1.088-3.486-1.688c-2.375-1.69-3.463-3.738-4.613-6.227
	c-0.871-1.893-1.971-6.113-4.346-6.952c-2.687-0.949-6.272,0.819-7.527,3.054c-1.182,2.086-0.488,5.859-2.509,7.6
	c-2.326,1.998-5.141-1.152-6.65-2.932c-1.565-1.849-3.147-3.822-5.063-5.459c-1.066-0.916-2.349-1.416-3.598-1.951
	c-0.955-0.406-14.483-3.426-18.729-3.412c-4.247,0.014-6.429,0.392-9.748,0.392c-3.076,0-5.674,0.402-8.188,1.948
	c-4.841,2.971-4.558,9.285-8.987,12.787c-2.138,1.688-5.24,1.988-6.695-0.605c-1.365-2.426-0.699-6.233-0.699-9.062
	c0-3.405,0.311-6.171-1.859-8.987c-1.438-1.871-3.88-3.98-5.935-5.052c0,0-10.508-6.134-18.719-7.796
	c-8.205-1.666-18.719-4.68-18.719-4.68c-3.997,0.036-6.856,1.235-9.249,4.396c-0.855,1.127-2.376,3.089-3.691,3.714
	c-1.871,0.885-3.803-0.178-4.302-1.785c-1.099-3.583-0.089-8.549-0.6-12.26c-0.25-1.762-0.811-3.78-2.52-4.896
	c-1.438-0.941-3.686-0.469-5.285-0.955c-5.973-1.813-4.602-8.499-7.594-12.682c-1.577-2.209-3.564-4.022-6.528-3.605
	c-2.454,0.347-6.012,0.444-8.1,2.035c-1.887,1.435-3.736,3.375-5.246,4.896c-1.577,1.596-4.369,3.953-6.256,1.36
	c-1.288-1.768-0.117-7.194,0.583-8.987c1.01-2.592,2.265-5.499,2.642-8.274c0.811-5.965-0.577-11.55-6.717-13.17
	c-3.076-0.811-6.112-0.153-9.271-0.086c-2.82,0.062-5.313,1.036-7.794,2.34c-2.554,1.338-4.652,3.819-7.328,4.774
	c-3.886,1.385-2.059-3.819-1.349-5.651c0.91-2.359,4.635-9.604,4.402-10.841c-0.355-1.926-0.538-1.885-2.748-1.929
	s-7.35,3.278-7.811,3.594c-0.411,0.283-2.82,2.837-3.198,3.284c-0.377,0.441-0.555,0.905-0.833,1.338
	c-0.7,1.132-1.644,1.793-2.776,2.415c-0.5,0.275-2.742,1.421-3.286,0.98c-0.644-0.516,0.389-2.915-1.194-2.029
	c-0.538,0.3-2.07,1.971-2.598,1.923c-1.005-0.094-3.159-4.052-3.886-4.055c-1.127-0.003-1.893,1.005-3.031,0.872
	c-1.183-0.139-1.449-1.416-1.443-2.451c0.006-0.805,0.105-2.412-0.86-2.748c-0.577-0.206-1.188,0.197-1.743,0.153
	c-0.583-0.044-0.738-0.511-0.86-1.008c-0.261-1.055,0.127-2.345-0.466-3.325c-1.016-1.671-3.453,2.715-3.964,3.498
	c-0.849,1.302-2.72,4.543-4.657,3c-1.666-1.327-1.188-3.766-2.048-5.465c-1.021,0.158-1.971,0.863-3.003,0.988
	c-1.288,0.161-1.299-1.637-1.299-2.595c0.005-1.207,1.343-5.579,0.844-6.611c-0.444-0.175-2.587,1.11-2.898,1.382
	c-0.888,0.755-1.443,1.346-2.676,1.166c-0.388-1.007,0.744-7.811,1.232-8.64c0.395-0.672,1.11-1.535,0.222-2.196
	c-0.788-0.588-1.965,0.003-2.06-1.26c-0.066-0.913,1.493-4.202,2.048-4.866c0.4-0.466,1.344-1.438,1.987-1.337
	c0,0,1.516,0.211,3.853-1.741c2.343-1.948-1.554-3.508-1.554-3.508c-1.338-1.452,0.417-3.653,0.844-5.001
	c1.033-0.15,3.714,0.472,4.53-0.147c1.011-0.76,0.744-2.65,1.349-3.722c1.688-2.97,4.924,1.008,7.722,0.311
	c0.55-0.136,6.772-1.599,8.56-1.093c3.159,0.896,6.229,1.576,9.337,2.731c4.519,1.679,26.668,13.442,29.35,15.413
	c2.803,2.063,16.526,9.989,20.179,12.196c5.967,3.603,46.764,20.128,47.974,21.425c0,0,23.698,14.716,25.625,15.294
	c7.127,2.137,14.278,4.216,21.45,6.237c4.375,1.235,8.571,3.062,12.968,4.225c5.029,1.327,10.081,2.143,15.211,2.992
	c10.114,1.674,20.179,2.562,30.393,3.312c11.042,0.811,50.965,8.293,56.561,7.713c15.383-1.593,17.443-0.516,32.754,0.78
	c6.416,0.544,20.322,0.069,26.512,1.56c2.244,0.542,13.807-0.61,15.988,0c2.154,0.603,36.211-5.368,36.75-5.537
	c1.543-0.489,15.166-3.134,17.469-3.412c2.004-0.244,3.914-0.974,5.824-1.676c4.102-1.516,6.572-5.143,9.658-8.188
	c2.199-2.171,1.771-4.516,3.119-7.017c0.705-1.313,1.561-2.556,2.91-2.939c1.404-0.396,2.721-0.302,4.207-0.477
	c2.721-0.319,5.297-1.049,7.771-2.337c2.811-1.457,2.627-4.743,4.996-6.336c2.326-1.565,5.342-0.786,7.807-2.329
	c2.242-1.399,3.529-3.178,4.074-5.673c0.639-2.934,0.344-5.484-1.744-7.791C475.352,79.902,465.664,75.6,465.664,75.6z"/>
<path fill="#212B34" d="M18.171,46.533c-0.655,0.647-0.722,1.494-0.655,2.054c0.083,0.622,0.478,1.31,0.949,1.757
	c1.194,1.141,2.731,1.557,4.325,1.727c0.366,0.042,4.169,0.633,5.001,0.627c0.938-0.011,1.588,0.308,2.249-0.569
	c0.433-0.577,0.821-1.327,0.999-2.029c0.2-0.769,0.333-1.768,0.078-2.57c-0.233-0.755-1.01-1.052-1.699-1.241
	c-0.422-0.114-3.031-0.946-5.412-0.946C21.624,45.343,18.815,45.884,18.171,46.533z"/>
<path fill="#1F3037" d="M22.901,68.774c-0.577,1.56-4.624,1.274-6.195,0.738c-1.032-0.355-1.332-1.046-1.604-2.101
	c-0.133-0.516-0.105-1.002-0.194-1.56c-0.389-2.537,3.708-3.75,4.729-3.858c1.077-0.111,1.754-0.139,2.443,0.786
	c0.555,0.741,0.622,1.346,0.633,2.292C22.712,65.072,23.489,67.215,22.901,68.774z"/>
<path fill="#1A272F" d="M54.488,53.567c0.588,1.171,2.687,1.718,4.097,2.292c1.321,0.533,2.554,1.266,3.902,1.76
	c1.049,0.383,2.715,1.316,3.903,1.021c1.366-0.341,2.021-2.104,2.137-3.317c0.283-2.978-0.35-5.898-2.099-8.238
	c-0.838-1.119-2.281-1.999-3.714-1.269c-1.088,0.558-2.148,1.416-3.208,2.043c-0.833,0.494-1.81,1.224-2.487,1.81
	C57.019,49.67,53.905,52.398,54.488,53.567z"/>
<path fill="#212B34" d="M25.049,41.676c-0.194,1.754,2.148,1.452,3.514,1.754c1.376,0.305,3.075,0.23,4.469,0.4
	c0.766,0.094,1.438,0.022,2.159,0.186c0.688,0.155,1.477,0.313,2.132,0.394c2.037,0.244,2.209-1.021,2.393-2.692
	c0.15-1.396,0.161-2.64-1.061-3.697c-0.888-0.771-2.692-1.557-3.858-1.413c-1.338,0.167-2.565,0.666-3.902,0.93
	c-1.41,0.28-2.393,1.071-3.697,1.604C27.198,39.142,25.244,39.922,25.049,41.676z"/>
<path fill="#1E2E3B" d="M84.32,69.555c1.205,1.773,3.941,2.423,5.857,2.914c1.104,0.283,2.237,0.438,3.059-0.613
	c0.777-0.985,0.833-2.256,0.833-3.47c0-2.07-1.065-5.046-3.708-4.488c-0.877,0.183-1.943,0.933-2.731,1.363
	c-0.888,0.483-1.36,0.394-2.337,1.76C84.32,68.386,84.32,69.555,84.32,69.555z"/>
<path fill="#1C2B2E" d="M114.341,98.019c0.017-1.385,0.444-3.048,1.321-4.141c0.838-1.052,2.17-1.604,3.319-2.148
	c0.616-0.294,1.299-0.539,1.999-0.727c0.71-0.194,1.421-0.614,2.132-0.792c0.622-0.149,1.532-0.183,2.148-0.183
	c0.783-0.005,1.371,0.383,1.904,0.975c0.911,0.996,1.854,2.27,2.398,3.497c0.488,1.124,0.999,2.987,0.766,4.299
	c-0.555,3.131-5.368,2.146-7.8,2.146c-2.431,0-4.979,0.536-7.178-0.622c-0.022-0.105-0.05-0.211-0.066-0.319
	c-0.111-0.058-0.233-0.069-0.355-0.033L114.341,98.019z"/>
<path fill="#19232C" d="M105.765,71.7c-0.394,1.365,2.159,4.377,4.48,5.654c1.343,0.733,2.903,1.446,4.441,1.407
	c0.3-0.008,0.411,0.097,0.821-0.086c0.5-0.228,0.661-0.536,1.033-0.894c0.527-0.508,0.899-1.016,1.354-1.549
	c0.289-0.344,0.522-0.399,0.788-0.833c0.167-0.286,0.316-0.558,0.478-0.83c0.389-0.638,0.533-1.154,0.644-1.896
	c0.1-0.75-0.011-1.582,0-2.34c0-1.149-0.189-1.152-1.183-1.354c-1.438-0.294-2.958-0.741-4.474-0.789
	c-1.638-0.053-2.87,0.125-4.28,0.589C109.101,69.033,106.153,70.334,105.765,71.7z"/>
<path fill="#1B262A" d="M175.561,129.214c0-0.722-0.133-1.604,0.044-2.295c0.167-0.661,2.087-4.974,2.92-6.042
	c0.644-0.827,2.065-1.965,3.286-1.81c3.109,0.4,4.386,5.299,4.907,6.79c0.361,1.046,0.928,3.164-0.056,3.894
	c-1.121,0.838-2.92,1.013-4.291,1.208c-0.993,0.144-2.525-0.183-4.28,0.011C176.338,131.162,175.561,129.214,175.561,129.214z"/>
<path fill="#1C2A35" d="M174.195,104.064c-0.211,0.913,1.876,2.64,2.531,3.319c0.844,0.88,1.827,1.901,2.781,2.676
	c2.914,2.362,4.857-2.812,5.457-4.827c0.438-1.493,0.333-3.05,0.344-4.677c0.012-1.521-0.565-2.97-2.342-2.737
	c-1.311,0.175-3.786,0.86-5.846,2.737C174.972,102.504,174.195,104.064,174.195,104.064z"/>
<path fill="#1A2730" d="M198.371,129.408c-0.972-0.78-0.194-2.956-0.194-4.483c-0.006-1.251,0.533-2.512,1.166-3.517
	c0.699-1.113,1.243-2.051,2.537-2.332c1.315-0.286,2.703-0.122,3.913,0.53c2.432,1.315,3.392,4.252,1.788,6.534
	c-0.833,1.185-1.633,2.207-2.965,2.878S199.342,130.188,198.371,129.408z"/>
<path fill="#1A2730" d="M235.609,137.402c-0.361-0.549-0.405-1.302-0.545-1.948c-0.188-0.877-0.438-1.616-0.427-2.537
	c0.005-1.526-0.389-3.081-0.211-4.688c0.339-2.945,5.273-2.768,7.616-2.523c1.41,0.147,3.081,0.211,4.041,1.416
	c1.044,1.307,0.139,2.506-0.877,3.505c-1.749,1.724-2.798,4.086-4.774,5.751c-0.71,0.602-1.576,1.266-2.486,1.413L235.609,137.402z"
	/>
<path fill="#1D313A" d="M277.914,145.981c-2.109-1.596-3.02-3.975-3.324-6.434c-0.162-1.324-0.189-2.673,1.17-3.131
	c1.178-0.394,2.6-0.38,3.908-0.38c1.334,0,2.676,0.036,3.859,0.63c1.504,0.755,0.654,2.165-0.006,3.217
	c-0.639,1.016-1.322,1.993-1.854,3.025c-0.512,0.988-1.5,1.876-2.193,2.681L277.914,145.981z"/>
<path fill="#223436" d="M223.912,114.98c0.583,1.171,2.099,2.157,3.076,2.579c1.426,0.616,2.814,0.943,4.341,1.116
	c0.722,0.083,1.199,0.353,1.932-0.039c0.711-0.377,1.133-1.107,1.571-1.712c0.849-1.171,1.326-2.842,1.359-4.283
	c0.045-1.643,0.312-2.814-0.344-4.335c-0.633-1.482-1.82-2.11-3.509-1.663c-1.287,0.338-2.354,1.449-3.363,2.298
	c-0.806,0.683-1.555,1.363-2.532,2.532C225.466,112.641,223.324,113.812,223.912,114.98z"/>
<path fill="#1D242C" d="M331.529,134.282c-1.754-1.366-3.215-0.003-3.559,0.341c-0.561,0.566-0.91,1.144-0.738,1.999
	c0.166,0.844,0.943,1.504,1.766,1.715c0.898,0.233,1.697-0.197,2.498-0.189c0.1-0.527,0.576-0.521,0.777-0.933
	C332.461,136.835,333.283,135.648,331.529,134.282z"/>
<path fill="#9C4D42" d="M341.432,128.364c-0.816-0.752-1.486-0.002-1.648,0.186c-0.26,0.314-0.422,0.63-0.344,1.102
	c0.084,0.466,0.438,0.83,0.816,0.946c0.422,0.128,0.787-0.111,1.154-0.105c0.049-0.291,0.277-0.286,0.365-0.513
	C341.859,129.769,342.242,129.117,341.432,128.364z"/>
<path fill="#9C4D42" d="M462.684,96.5c-0.811-0.752-1.488-0.003-1.645,0.188c-0.26,0.311-0.422,0.63-0.344,1.099
	c0.078,0.466,0.439,0.83,0.822,0.947c0.41,0.127,0.781-0.108,1.154-0.105c0.045-0.289,0.266-0.286,0.361-0.514
	C463.115,97.905,463.492,97.252,462.684,96.5z"/>
<path fill="#9C4D42" d="M463.049,79.61c-0.816-0.752-1.488-0.002-1.648,0.189c-0.262,0.311-0.422,0.63-0.344,1.099
	c0.082,0.466,0.438,0.83,0.816,0.946c0.422,0.128,0.787-0.108,1.16-0.105c0.043-0.289,0.271-0.286,0.359-0.513
	C463.477,81.015,463.859,80.363,463.049,79.61z"/>
<path fill="#9C4D42" d="M476.793,87.213c-0.814-0.752-1.486,0-1.648,0.189c-0.26,0.311-0.422,0.63-0.344,1.102
	c0.084,0.463,0.439,0.827,0.816,0.943c0.422,0.13,0.789-0.108,1.154-0.103c0.051-0.292,0.277-0.289,0.367-0.514
	C477.221,88.62,477.604,87.965,476.793,87.213z"/>
<path fill="#9C4D42" d="M269.383,123.113c-0.816-0.752-1.488-0.002-1.648,0.186c-0.262,0.314-0.422,0.633-0.346,1.102
	c0.084,0.466,0.445,0.83,0.822,0.946c0.41,0.128,0.789-0.111,1.154-0.105c0.045-0.291,0.268-0.286,0.361-0.513
	C269.811,124.518,270.193,123.865,269.383,123.113z"/>
<path fill="#9C4D42" d="M253.006,115.802c-0.816-0.752-1.488-0.002-1.649,0.186c-0.261,0.314-0.422,0.633-0.344,1.102
	c0.078,0.466,0.444,0.83,0.821,0.946c0.411,0.128,0.783-0.111,1.155-0.105c0.044-0.291,0.267-0.286,0.36-0.513
	C253.433,117.207,253.817,116.554,253.006,115.802z"/>
<path fill="#9C4D42" d="M203.872,108.233c-0.815-0.752-1.487-0.003-1.648,0.188c-0.261,0.311-0.422,0.63-0.344,1.099
	c0.083,0.466,0.438,0.83,0.815,0.947c0.422,0.127,0.788-0.108,1.155-0.105c0.05-0.289,0.271-0.286,0.366-0.511
	C204.299,109.637,204.682,108.985,203.872,108.233z"/>
<path fill="#9C4D42" d="M136.391,103.592c-0.816-0.755-1.488-0.002-1.649,0.186c-0.261,0.311-0.422,0.63-0.339,1.102
	c0.078,0.463,0.433,0.83,0.811,0.946c0.422,0.128,0.789-0.111,1.155-0.105c0.05-0.291,0.272-0.289,0.366-0.513
	C136.818,104.997,137.201,104.341,136.391,103.592z"/>
<path fill="#9C4D42" d="M17.072,65.866c-0.811-0.752-1.488-0.003-1.643,0.188c-0.267,0.311-0.422,0.63-0.344,1.099
	c0.078,0.466,0.433,0.83,0.816,0.947c0.417,0.127,0.783-0.108,1.155-0.105c0.05-0.289,0.272-0.286,0.361-0.514
	C17.505,67.27,17.883,66.618,17.072,65.866z"/>
<path fill="#9C4D42" d="M145.084,93.611c-0.811-0.752-1.482-0.003-1.643,0.189c-0.261,0.311-0.422,0.63-0.344,1.099
	c0.078,0.466,0.438,0.83,0.822,0.946c0.411,0.127,0.783-0.108,1.155-0.105c0.044-0.289,0.266-0.286,0.355-0.511
	C145.517,95.015,145.895,94.363,145.084,93.611z"/>
<path fill="#9C4D42" d="M128.419,81.329c-0.811-0.752-1.488-0.003-1.644,0.189c-0.266,0.311-0.422,0.63-0.344,1.099
	c0.078,0.466,0.433,0.83,0.81,0.946c0.422,0.128,0.789-0.108,1.161-0.105c0.05-0.289,0.272-0.286,0.36-0.514
	C128.852,82.733,129.23,82.081,128.419,81.329z"/>
<path fill="#9C4D42" d="M58.296,35.639c-0.816-0.752-1.488-0.003-1.649,0.188c-0.261,0.311-0.422,0.63-0.344,1.099
	c0.083,0.466,0.439,0.83,0.816,0.947c0.422,0.127,0.788-0.108,1.154-0.105c0.05-0.289,0.272-0.286,0.367-0.514
	C58.723,37.043,59.106,36.391,58.296,35.639z"/>
<path fill="#9C4D42" d="M54.199,44.999c-0.81-0.755-1.487-0.003-1.643,0.186c-0.266,0.311-0.422,0.63-0.344,1.102
	c0.078,0.463,0.433,0.83,0.811,0.946c0.422,0.127,0.789-0.111,1.16-0.105c0.05-0.292,0.272-0.289,0.361-0.514
	C54.632,46.403,55.009,45.748,54.199,44.999z"/>
<path fill="#2A333C" d="M369.355,137.988c-0.59,1.948,0.699,3.189,1.221,4.482c0.521,1.305,1.332,2.49,2.137,3.667
	c0.689,1.005,1.572,2.193,2.637,2.817c1.344,0.791,2.564-0.222,3.564-1.18c1.965-1.882,2.914-4.552,2.914-7.252
	c0-1.566-0.049-2.401-1.121-3.564c-0.961-1.038-2.404-0.922-3.752-0.922C376.955,136.036,369.932,136.039,369.355,137.988z"/>
<path fill="#223D50" d="M386.508,128.045c-0.289,1.826,1.588,3.492,2.332,3.952c0.895,0.553,2.025,1.066,2.975,1.466
	c0.545,0.228,1.922,0.719,2.498,0.633c0.756-0.111,1.443-1.316,1.705-1.957c0.66-1.596,1.109-4.224,0.283-5.856
	c-0.439-0.872-0.771-1.418-1.799-1.552c-0.5-0.066-1.055,0-1.564-0.002c-0.545-0.003-1.066,0.28-1.555,0.197
	C391.383,124.925,387.092,124.34,386.508,128.045z"/>
<path fill="#264051" d="M433.883,117.126c2.143,2.34,5.695,2.612,8.582,2.154c2.908-0.463,3.393-4.03,3.309-6.445
	c-0.088-2.604-0.488-5.898-3.553-6.584c-1.238-0.275-3.037-0.136-4.197,0.2c-0.799,0.23-1.842,0.777-2.58,2.487
	C434.705,110.645,431.74,114.786,433.883,117.126z"/>
<path fill="#9C4D42" d="M443.047,120.049c-0.371-0.236-0.027-0.422-0.193-0.783c-0.205-0.453-0.184-0.311-0.545-0.625
	c-0.365-0.319-1.266-0.672-1.025-1.33c0.205-0.563,1.293-0.7,1.77-0.433c0.533,0.289,0.91,1.021,0.771,1.613L443.047,120.049z"/>
<path fill="#9C4D42" d="M394.313,135.084c-0.377-0.239-0.033-0.425-0.193-0.786c-0.205-0.453-0.184-0.311-0.549-0.622
	c-0.367-0.319-1.266-0.672-1.021-1.333c0.199-0.561,1.287-0.697,1.77-0.433c0.533,0.292,0.906,1.021,0.771,1.613L394.313,135.084z"
	/>
<path fill="#9C4D42" d="M414.875,54.164c-0.066,0.438-0.377,0.2-0.633,0.5c-0.328,0.377-0.211,0.3-0.344,0.758
	c-0.133,0.466-0.078,1.43-0.777,1.491c-0.6,0.05-1.178-0.883-1.133-1.43c0.045-0.608,0.545-1.252,1.145-1.376L414.875,54.164z"/>
<path fill="#9C4D42" d="M374.807,51.824c-0.057,0.438-0.373,0.2-0.633,0.5c-0.322,0.377-0.201,0.3-0.34,0.758
	c-0.139,0.466-0.076,1.43-0.777,1.491c-0.594,0.05-1.17-0.883-1.137-1.43c0.045-0.608,0.555-1.252,1.143-1.374L374.807,51.824z"/>
<path fill="#9C4D42" d="M489.15,62.643c-0.055,0.438-0.371,0.2-0.633,0.502c-0.322,0.377-0.199,0.3-0.332,0.755
	c-0.145,0.466-0.084,1.43-0.783,1.491c-0.594,0.05-1.172-0.883-1.139-1.43c0.045-0.605,0.557-1.249,1.145-1.374L489.15,62.643z"/>
<path fill="#9C4D42" d="M305.498,50.069c-0.061,0.439-0.371,0.2-0.633,0.5c-0.326,0.377-0.205,0.3-0.338,0.758
	c-0.133,0.466-0.078,1.429-0.777,1.49c-0.6,0.05-1.176-0.883-1.139-1.432c0.045-0.605,0.551-1.249,1.15-1.374L305.498,50.069z"/>
<path fill="#9C4D42" d="M277.977,48.654c0.205,0.389-0.184,0.38-0.217,0.774c-0.045,0.494,0.006,0.364,0.166,0.811
	c0.156,0.458,0.766,1.21,0.232,1.668c-0.455,0.386-1.465-0.034-1.754-0.5c-0.322-0.516-0.283-1.338,0.123-1.785L277.977,48.654z"/>
<path fill="#9C4D42" d="M335.869,54.71c0.211,0.391-0.178,0.38-0.221,0.774c-0.039,0.497,0.01,0.364,0.172,0.813
	c0.16,0.458,0.771,1.208,0.238,1.666c-0.455,0.389-1.471-0.033-1.76-0.5c-0.316-0.516-0.283-1.335,0.127-1.782L335.869,54.71z"/>
<path fill="#9C4D42" d="M228.253,40.674c0.211,0.389-0.184,0.38-0.223,0.774c-0.044,0.494,0.012,0.364,0.167,0.811
	c0.166,0.461,0.771,1.21,0.238,1.668c-0.449,0.386-1.471-0.034-1.76-0.5c-0.311-0.516-0.277-1.337,0.134-1.785L228.253,40.674z"/>
<path fill="#9C4D42" d="M203.95,44.699c-0.211,0.369,0.166,0.389,0.188,0.78c0.033,0.491-0.011,0.358-0.172,0.789
	c-0.161,0.438-0.755,1.135-0.261,1.624c0.422,0.417,1.398,0.072,1.682-0.366c0.316-0.486,0.294-1.296-0.083-1.766L203.95,44.699z"/>
<path fill="#9C4D42" d="M189.083,40.466c-0.2,0.369,0.172,0.389,0.2,0.78c0.033,0.492-0.018,0.355-0.178,0.789
	c-0.161,0.438-0.755,1.135-0.256,1.624c0.422,0.414,1.399,0.072,1.677-0.369c0.316-0.486,0.3-1.293-0.078-1.765L189.083,40.466z"/>
<path fill="#9C4D42" d="M148.381,36.511c-0.205,0.369,0.167,0.389,0.194,0.78c0.034,0.491-0.017,0.358-0.172,0.788
	c-0.167,0.439-0.755,1.135-0.261,1.624c0.427,0.417,1.399,0.072,1.682-0.366c0.311-0.486,0.294-1.296-0.083-1.766L148.381,36.511z"
	/>
<path fill="#9C4D42" d="M138.939,24.273c-0.206,0.372,0.172,0.389,0.194,0.78c0.033,0.491-0.011,0.358-0.178,0.789
	c-0.155,0.438-0.755,1.135-0.255,1.624c0.422,0.417,1.399,0.072,1.676-0.366c0.322-0.486,0.3-1.296-0.078-1.766L138.939,24.273z"/>
<path fill="#9C4D42" d="M173.529,39.728c-0.2,0.369,0.172,0.389,0.2,0.78c0.033,0.492-0.017,0.358-0.178,0.789
	c-0.161,0.438-0.755,1.135-0.255,1.624c0.422,0.417,1.399,0.072,1.677-0.366c0.316-0.486,0.3-1.296-0.078-1.765L173.529,39.728z"/>
<path fill="#9C4D42" d="M81.389,124.132c0.422,0.036,0.283-0.314,0.633-0.497c0.433-0.228,0.333-0.13,0.788-0.161
	c0.466-0.03,1.343,0.23,1.588-0.424c0.211-0.555-0.5-1.305-1.021-1.385c-0.566-0.089-1.299,0.258-1.577,0.794L81.389,124.132z"/>
<path fill="#9C4D42" d="M50.424,99.439c0.422,0.036,0.289-0.313,0.638-0.494c0.438-0.23,0.328-0.133,0.788-0.164
	c0.472-0.03,1.349,0.23,1.593-0.425c0.2-0.555-0.505-1.304-1.021-1.385c-0.572-0.089-1.304,0.258-1.576,0.796L50.424,99.439z"/>
<path fill="#9C4D42" d="M188.628,180.671c0.377-0.193,0.072-0.416,0.267-0.758c0.244-0.428,0.211-0.289,0.583-0.561
	c0.377-0.274,1.26-0.524,1.115-1.207c-0.122-0.58-1.121-0.833-1.599-0.627c-0.533,0.232-0.966,0.916-0.91,1.518L188.628,180.671z"/>
<path fill="#9C4D42" d="M485.809,127.365c0.066-0.419-0.289-0.308-0.443-0.669c-0.199-0.45-0.111-0.336-0.111-0.796
	c0.006-0.472,0.334-1.327-0.305-1.618c-0.539-0.245-1.338,0.408-1.461,0.916c-0.121,0.563,0.168,1.321,0.684,1.635L485.809,127.365z
	"/>
<path fill="#9C4D42" d="M251.613,50.255c-0.2,0.369,0.172,0.389,0.2,0.78c0.033,0.491-0.017,0.358-0.178,0.788
	c-0.167,0.438-0.755,1.135-0.256,1.624c0.422,0.417,1.394,0.072,1.677-0.366c0.311-0.486,0.3-1.296-0.083-1.765L251.613,50.255z"/>
<path fill="#9C4D42" d="M115.34,13.034c-0.211,0.369,0.167,0.389,0.189,0.78c0.033,0.491-0.011,0.355-0.172,0.788
	c-0.161,0.438-0.76,1.135-0.261,1.624c0.422,0.414,1.399,0.072,1.682-0.366c0.316-0.486,0.294-1.296-0.083-1.765L115.34,13.034z"/>
<path fill="#9C4D42" d="M77.125,0c0.056,0.419,0.367,0.211,0.622,0.511c0.322,0.375,0.2,0.292,0.333,0.733
	c0.133,0.452,0.072,1.365,0.76,1.46c0.588,0.078,1.166-0.78,1.127-1.302c-0.033-0.578-0.533-1.216-1.121-1.363L77.125,0z"/>
<path fill="#9C4D42" d="M32.372,24.234c0.15,0.397,0.411,0.125,0.722,0.358c0.394,0.294,0.266,0.241,0.488,0.641
	c0.233,0.411,0.377,1.315,1.066,1.251c0.594-0.055,0.966-1.019,0.811-1.518c-0.167-0.555-0.794-1.066-1.399-1.08L32.372,24.234z"/>
<path fill="#9C4D42" d="M375.066,150.956c-0.232-0.375,0.162-0.392,0.172-0.789c0.012-0.497-0.033-0.364-0.221-0.799
	c-0.189-0.447-0.844-1.155-0.344-1.646c0.432-0.417,1.465-0.064,1.787,0.383c0.344,0.494,0.365,1.315-0.012,1.787L375.066,150.956z"
	/>
<path fill="#9C4D42" d="M277.41,148.31c-0.234-0.377,0.16-0.391,0.172-0.788c0.01-0.5-0.033-0.364-0.223-0.799
	c-0.189-0.447-0.844-1.155-0.344-1.646c0.434-0.419,1.465-0.064,1.787,0.38c0.35,0.497,0.367,1.319-0.012,1.791L277.41,148.31z"/>
<path fill="#9C4D42" d="M234.937,138.995c-0.066-0.438,0.3-0.294,0.466-0.655c0.211-0.452,0.117-0.347,0.122-0.821
	c0-0.486-0.321-1.396,0.333-1.646c0.562-0.214,1.377,0.524,1.488,1.06c0.122,0.594-0.184,1.354-0.722,1.638L234.937,138.995z"/>
<path fill="#9C4D42" d="M197.066,131.404c-0.066-0.436,0.306-0.294,0.472-0.652c0.206-0.452,0.117-0.347,0.117-0.821
	c0-0.486-0.316-1.396,0.339-1.649c0.561-0.211,1.371,0.524,1.481,1.06c0.128,0.594-0.178,1.354-0.722,1.638L197.066,131.404z"/>
<path fill="#9C4D42" d="M173.212,131.198c0.15-0.414,0.405-0.111,0.727-0.35c0.4-0.297,0.267-0.247,0.494-0.664
	c0.239-0.424,0.394-1.376,1.088-1.282c0.594,0.081,0.95,1.119,0.794,1.643c-0.172,0.581-0.811,1.099-1.421,1.091L173.212,131.198z"
	/>
<path fill="#9C4D42" d="M82.044,70.481c0.156-0.417,0.411-0.114,0.733-0.35c0.399-0.297,0.261-0.247,0.488-0.664
	c0.239-0.424,0.4-1.376,1.088-1.282c0.6,0.081,0.955,1.116,0.799,1.641c-0.178,0.583-0.811,1.102-1.421,1.093L82.044,70.481z"/>
<path fill="#9C4D42" d="M52.3,54.891c0.156-0.414,0.405-0.111,0.722-0.347c0.4-0.297,0.267-0.25,0.5-0.666
	c0.233-0.425,0.388-1.377,1.088-1.283c0.588,0.083,0.955,1.119,0.794,1.644c-0.172,0.583-0.816,1.099-1.416,1.091L52.3,54.891z"/>
<path fill="#9C4D42" d="M15.957,50.375c0.15-0.417,0.405-0.114,0.727-0.35c0.4-0.297,0.267-0.25,0.494-0.663
	c0.239-0.425,0.394-1.377,1.088-1.285c0.594,0.083,0.949,1.119,0.794,1.643c-0.178,0.583-0.811,1.102-1.421,1.094L15.957,50.375z"/>
<path fill="#9C4D42" d="M22.423,41.39c0.344-0.28,0.411,0.108,0.805,0.066c0.494-0.053,0.355-0.078,0.761-0.322
	c0.422-0.244,1.038-0.985,1.587-0.552c0.472,0.372,0.255,1.446-0.145,1.818c-0.444,0.414-1.26,0.539-1.776,0.222L22.423,41.39z"/>
<path fill="#9C4D42" d="M172.202,102.695c0.433-0.097,0.316,0.28,0.688,0.419c0.467,0.175,0.35,0.086,0.827,0.053
	c0.489-0.034,1.366-0.419,1.666,0.213c0.255,0.544-0.417,1.407-0.944,1.56c-0.583,0.172-1.365-0.081-1.688-0.594L172.202,102.695z"
	/>
<path fill="#9C4D42" d="M112.426,97.05c0.433-0.097,0.316,0.28,0.688,0.419c0.466,0.175,0.35,0.086,0.827,0.053
	c0.489-0.033,1.366-0.419,1.666,0.214c0.255,0.544-0.417,1.407-0.944,1.563c-0.583,0.169-1.365-0.083-1.688-0.597L112.426,97.05z"/>
<path fill="#9C4D42" d="M104.238,70.729c0.433-0.097,0.316,0.28,0.688,0.422c0.466,0.172,0.355,0.086,0.827,0.053
	c0.483-0.033,1.371-0.422,1.671,0.214c0.255,0.541-0.422,1.407-0.949,1.56c-0.583,0.172-1.36-0.081-1.688-0.594L104.238,70.729z"/>
<path fill="#9C4D42" d="M221.792,116.144c0.222-0.38,0.422-0.039,0.777-0.214c0.443-0.219,0.305-0.197,0.61-0.563
	c0.306-0.377,0.627-1.285,1.299-1.069c0.566,0.186,0.733,1.269,0.483,1.757c-0.272,0.541-0.994,0.938-1.594,0.821L221.792,116.144z"
	/>
</svg>
